<?xml version="1.0" encoding="UTF-8"?>
<svg xmlns="http://www.w3.org/2000/svg" xmlns:xlink="http://www.w3.org/1999/xlink" width="2048pt" height="2048pt" viewBox="0 0 2048 2048" version="1.1">
<defs>
<g>
<symbol overflow="visible" id="glyph0-0">
<path style="stroke:none;" d="M 1 3.53125 L 1 -14.109375 L 11 -14.109375 L 11 3.53125 Z M 2.125 2.421875 L 9.890625 2.421875 L 9.890625 -12.984375 L 2.125 -12.984375 Z M 2.125 2.421875 "/>
</symbol>
<symbol overflow="visible" id="glyph0-1">
<path style="stroke:none;" d="M 8.21875 -9.265625 C 8.019531 -9.378906 7.800781 -9.460938 7.5625 -9.515625 C 7.320312 -9.566406 7.0625 -9.59375 6.78125 -9.59375 C 5.757812 -9.59375 4.976562 -9.265625 4.4375 -8.609375 C 3.894531 -7.953125 3.625 -7.003906 3.625 -5.765625 L 3.625 0 L 1.8125 0 L 1.8125 -10.9375 L 3.625 -10.9375 L 3.625 -9.234375 C 4 -9.898438 4.488281 -10.394531 5.09375 -10.71875 C 5.695312 -11.039062 6.4375 -11.203125 7.3125 -11.203125 C 7.425781 -11.203125 7.554688 -11.191406 7.703125 -11.171875 C 7.859375 -11.160156 8.03125 -11.140625 8.21875 -11.109375 Z M 8.21875 -9.265625 "/>
</symbol>
<symbol overflow="visible" id="glyph0-2">
<path style="stroke:none;" d="M 6.859375 -5.5 C 5.398438 -5.5 4.390625 -5.332031 3.828125 -5 C 3.273438 -4.664062 3 -4.097656 3 -3.296875 C 3 -2.660156 3.207031 -2.15625 3.625 -1.78125 C 4.050781 -1.40625 4.625 -1.21875 5.34375 -1.21875 C 6.34375 -1.21875 7.140625 -1.570312 7.734375 -2.28125 C 8.335938 -2.988281 8.640625 -3.925781 8.640625 -5.09375 L 8.640625 -5.5 Z M 10.4375 -6.234375 L 10.4375 0 L 8.640625 0 L 8.640625 -1.65625 C 8.234375 -1 7.722656 -0.507812 7.109375 -0.1875 C 6.492188 0.125 5.742188 0.28125 4.859375 0.28125 C 3.742188 0.28125 2.851562 -0.03125 2.1875 -0.65625 C 1.53125 -1.289062 1.203125 -2.132812 1.203125 -3.1875 C 1.203125 -4.414062 1.613281 -5.34375 2.4375 -5.96875 C 3.257812 -6.59375 4.488281 -6.90625 6.125 -6.90625 L 8.640625 -6.90625 L 8.640625 -7.078125 C 8.640625 -7.910156 8.367188 -8.550781 7.828125 -9 C 7.285156 -9.445312 6.519531 -9.671875 5.53125 -9.671875 C 4.90625 -9.671875 4.296875 -9.597656 3.703125 -9.453125 C 3.117188 -9.304688 2.550781 -9.082031 2 -8.78125 L 2 -10.4375 C 2.65625 -10.695312 3.289062 -10.890625 3.90625 -11.015625 C 4.53125 -11.140625 5.132812 -11.203125 5.71875 -11.203125 C 7.300781 -11.203125 8.484375 -10.789062 9.265625 -9.96875 C 10.046875 -9.144531 10.4375 -7.898438 10.4375 -6.234375 Z M 10.4375 -6.234375 "/>
</symbol>
<symbol overflow="visible" id="glyph0-3">
<path style="stroke:none;" d="M 3.65625 -14.046875 L 3.65625 -10.9375 L 7.359375 -10.9375 L 7.359375 -9.546875 L 3.65625 -9.546875 L 3.65625 -3.609375 C 3.65625 -2.710938 3.773438 -2.132812 4.015625 -1.875 C 4.265625 -1.625 4.765625 -1.5 5.515625 -1.5 L 7.359375 -1.5 L 7.359375 0 L 5.515625 0 C 4.128906 0 3.171875 -0.253906 2.640625 -0.765625 C 2.117188 -1.285156 1.859375 -2.234375 1.859375 -3.609375 L 1.859375 -9.546875 L 0.53125 -9.546875 L 0.53125 -10.9375 L 1.859375 -10.9375 L 1.859375 -14.046875 Z M 3.65625 -14.046875 "/>
</symbol>
<symbol overflow="visible" id="glyph0-4">
<path style="stroke:none;" d="M 0.59375 -10.9375 L 2.5 -10.9375 L 5.921875 -1.765625 L 9.34375 -10.9375 L 11.234375 -10.9375 L 7.140625 0 L 4.703125 0 Z M 0.59375 -10.9375 "/>
</symbol>
<symbol overflow="visible" id="glyph0-5">
<path style="stroke:none;" d="M 11.234375 -5.921875 L 11.234375 -5.046875 L 2.984375 -5.046875 C 3.054688 -3.804688 3.425781 -2.859375 4.09375 -2.203125 C 4.757812 -1.554688 5.691406 -1.234375 6.890625 -1.234375 C 7.578125 -1.234375 8.242188 -1.316406 8.890625 -1.484375 C 9.535156 -1.660156 10.179688 -1.914062 10.828125 -2.25 L 10.828125 -0.5625 C 10.179688 -0.28125 9.519531 -0.0703125 8.84375 0.0625 C 8.164062 0.207031 7.476562 0.28125 6.78125 0.28125 C 5.03125 0.28125 3.644531 -0.222656 2.625 -1.234375 C 1.613281 -2.253906 1.109375 -3.628906 1.109375 -5.359375 C 1.109375 -7.148438 1.585938 -8.570312 2.546875 -9.625 C 3.515625 -10.675781 4.820312 -11.203125 6.46875 -11.203125 C 7.9375 -11.203125 9.097656 -10.726562 9.953125 -9.78125 C 10.804688 -8.832031 11.234375 -7.546875 11.234375 -5.921875 Z M 9.4375 -6.453125 C 9.425781 -7.429688 9.148438 -8.210938 8.609375 -8.796875 C 8.078125 -9.378906 7.367188 -9.671875 6.484375 -9.671875 C 5.484375 -9.671875 4.679688 -9.390625 4.078125 -8.828125 C 3.472656 -8.265625 3.125 -7.46875 3.03125 -6.4375 Z M 9.4375 -6.453125 "/>
</symbol>
<symbol overflow="visible" id="glyph0-6">
<path style="stroke:none;" d="M 10.40625 -8.84375 C 10.851562 -9.644531 11.390625 -10.238281 12.015625 -10.625 C 12.640625 -11.007812 13.375 -11.203125 14.21875 -11.203125 C 15.351562 -11.203125 16.226562 -10.800781 16.84375 -10 C 17.46875 -9.207031 17.78125 -8.078125 17.78125 -6.609375 L 17.78125 0 L 15.984375 0 L 15.984375 -6.546875 C 15.984375 -7.585938 15.796875 -8.363281 15.421875 -8.875 C 15.046875 -9.382812 14.476562 -9.640625 13.71875 -9.640625 C 12.789062 -9.640625 12.054688 -9.328125 11.515625 -8.703125 C 10.972656 -8.085938 10.703125 -7.25 10.703125 -6.1875 L 10.703125 0 L 8.890625 0 L 8.890625 -6.546875 C 8.890625 -7.597656 8.703125 -8.375 8.328125 -8.875 C 7.960938 -9.382812 7.394531 -9.640625 6.625 -9.640625 C 5.707031 -9.640625 4.976562 -9.328125 4.4375 -8.703125 C 3.894531 -8.085938 3.625 -7.25 3.625 -6.1875 L 3.625 0 L 1.8125 0 L 1.8125 -10.9375 L 3.625 -10.9375 L 3.625 -9.234375 C 4.03125 -9.910156 4.519531 -10.40625 5.09375 -10.71875 C 5.664062 -11.039062 6.347656 -11.203125 7.140625 -11.203125 C 7.929688 -11.203125 8.601562 -11 9.15625 -10.59375 C 9.71875 -10.1875 10.132812 -9.601562 10.40625 -8.84375 Z M 10.40625 -8.84375 "/>
</symbol>
<symbol overflow="visible" id="glyph0-7">
<path style="stroke:none;" d="M 1.890625 -10.9375 L 3.6875 -10.9375 L 3.6875 0 L 1.890625 0 Z M 1.890625 -15.203125 L 3.6875 -15.203125 L 3.6875 -12.921875 L 1.890625 -12.921875 Z M 1.890625 -15.203125 "/>
</symbol>
<symbol overflow="visible" id="glyph1-0">
<path style="stroke:none;" d="M 0.703125 2.46875 L 0.703125 -9.875 L 7.703125 -9.875 L 7.703125 2.46875 Z M 1.484375 1.703125 L 6.921875 1.703125 L 6.921875 -9.078125 L 1.484375 -9.078125 Z M 1.484375 1.703125 "/>
</symbol>
<symbol overflow="visible" id="glyph1-1">
<path style="stroke:none;" d="M 1.734375 -1.15625 L 4 -1.15625 L 4 -8.953125 L 1.53125 -8.453125 L 1.53125 -9.71875 L 3.984375 -10.203125 L 5.359375 -10.203125 L 5.359375 -1.15625 L 7.609375 -1.15625 L 7.609375 0 L 1.734375 0 Z M 1.734375 -1.15625 "/>
</symbol>
<symbol overflow="visible" id="glyph1-2">
<path style="stroke:none;" d="M 4.453125 -9.296875 C 3.742188 -9.296875 3.207031 -8.945312 2.84375 -8.25 C 2.488281 -7.550781 2.3125 -6.5 2.3125 -5.09375 C 2.3125 -3.695312 2.488281 -2.644531 2.84375 -1.9375 C 3.207031 -1.238281 3.742188 -0.890625 4.453125 -0.890625 C 5.171875 -0.890625 5.707031 -1.238281 6.0625 -1.9375 C 6.414062 -2.644531 6.59375 -3.695312 6.59375 -5.09375 C 6.59375 -6.5 6.414062 -7.550781 6.0625 -8.25 C 5.707031 -8.945312 5.171875 -9.296875 4.453125 -9.296875 Z M 4.453125 -10.390625 C 5.597656 -10.390625 6.472656 -9.9375 7.078125 -9.03125 C 7.679688 -8.125 7.984375 -6.8125 7.984375 -5.09375 C 7.984375 -3.375 7.679688 -2.0625 7.078125 -1.15625 C 6.472656 -0.25 5.597656 0.203125 4.453125 0.203125 C 3.304688 0.203125 2.429688 -0.25 1.828125 -1.15625 C 1.222656 -2.0625 0.921875 -3.375 0.921875 -5.09375 C 0.921875 -6.8125 1.222656 -8.125 1.828125 -9.03125 C 2.429688 -9.9375 3.304688 -10.390625 4.453125 -10.390625 Z M 4.453125 -10.390625 "/>
</symbol>
<symbol overflow="visible" id="glyph1-3">
<path style="stroke:none;" d="M 5.296875 -9 L 1.8125 -3.5625 L 5.296875 -3.5625 Z M 4.921875 -10.203125 L 6.671875 -10.203125 L 6.671875 -3.5625 L 8.125 -3.5625 L 8.125 -2.40625 L 6.671875 -2.40625 L 6.671875 0 L 5.296875 0 L 5.296875 -2.40625 L 0.6875 -2.40625 L 0.6875 -3.734375 Z M 4.921875 -10.203125 "/>
</symbol>
<symbol overflow="visible" id="glyph1-4">
<path style="stroke:none;" d="M 1.5 -1.734375 L 2.9375 -1.734375 L 2.9375 0 L 1.5 0 Z M 1.5 -1.734375 "/>
</symbol>
<symbol overflow="visible" id="glyph1-5">
<path style="stroke:none;" d="M 2.6875 -1.15625 L 7.5 -1.15625 L 7.5 0 L 1.03125 0 L 1.03125 -1.15625 C 1.550781 -1.695312 2.265625 -2.425781 3.171875 -3.34375 C 4.078125 -4.257812 4.644531 -4.847656 4.875 -5.109375 C 5.3125 -5.609375 5.617188 -6.03125 5.796875 -6.375 C 5.972656 -6.71875 6.0625 -7.054688 6.0625 -7.390625 C 6.0625 -7.929688 5.867188 -8.375 5.484375 -8.71875 C 5.109375 -9.0625 4.613281 -9.234375 4 -9.234375 C 3.570312 -9.234375 3.117188 -9.15625 2.640625 -9 C 2.160156 -8.851562 1.644531 -8.625 1.09375 -8.3125 L 1.09375 -9.71875 C 1.644531 -9.9375 2.160156 -10.101562 2.640625 -10.21875 C 3.128906 -10.332031 3.578125 -10.390625 3.984375 -10.390625 C 5.035156 -10.390625 5.875 -10.125 6.5 -9.59375 C 7.132812 -9.070312 7.453125 -8.367188 7.453125 -7.484375 C 7.453125 -7.054688 7.375 -6.65625 7.21875 -6.28125 C 7.0625 -5.90625 6.773438 -5.460938 6.359375 -4.953125 C 6.242188 -4.828125 5.878906 -4.445312 5.265625 -3.8125 C 4.660156 -3.175781 3.800781 -2.289062 2.6875 -1.15625 Z M 2.6875 -1.15625 "/>
</symbol>
<symbol overflow="visible" id="glyph1-6">
<path style="stroke:none;" d="M 1.53125 -0.21875 L 1.53125 -1.46875 C 1.882812 -1.300781 2.238281 -1.175781 2.59375 -1.09375 C 2.945312 -1.007812 3.296875 -0.96875 3.640625 -0.96875 C 4.546875 -0.96875 5.238281 -1.269531 5.71875 -1.875 C 6.207031 -2.488281 6.484375 -3.421875 6.546875 -4.671875 C 6.285156 -4.285156 5.953125 -3.984375 5.546875 -3.765625 C 5.140625 -3.554688 4.691406 -3.453125 4.203125 -3.453125 C 3.179688 -3.453125 2.367188 -3.757812 1.765625 -4.375 C 1.171875 -5 0.875 -5.847656 0.875 -6.921875 C 0.875 -7.960938 1.179688 -8.800781 1.796875 -9.4375 C 2.421875 -10.070312 3.25 -10.390625 4.28125 -10.390625 C 5.46875 -10.390625 6.367188 -9.9375 6.984375 -9.03125 C 7.609375 -8.125 7.921875 -6.8125 7.921875 -5.09375 C 7.921875 -3.488281 7.539062 -2.203125 6.78125 -1.234375 C 6.019531 -0.273438 4.992188 0.203125 3.703125 0.203125 C 3.347656 0.203125 2.992188 0.164062 2.640625 0.09375 C 2.285156 0.03125 1.914062 -0.0703125 1.53125 -0.21875 Z M 4.28125 -4.546875 C 4.90625 -4.546875 5.394531 -4.753906 5.75 -5.171875 C 6.113281 -5.597656 6.296875 -6.179688 6.296875 -6.921875 C 6.296875 -7.648438 6.113281 -8.226562 5.75 -8.65625 C 5.394531 -9.082031 4.90625 -9.296875 4.28125 -9.296875 C 3.664062 -9.296875 3.175781 -9.082031 2.8125 -8.65625 C 2.445312 -8.226562 2.265625 -7.648438 2.265625 -6.921875 C 2.265625 -6.179688 2.445312 -5.597656 2.8125 -5.171875 C 3.175781 -4.753906 3.664062 -4.546875 4.28125 -4.546875 Z M 4.28125 -4.546875 "/>
</symbol>
<symbol overflow="visible" id="glyph1-7">
<path style="stroke:none;" d="M 5.6875 -5.5 C 6.34375 -5.363281 6.851562 -5.070312 7.21875 -4.625 C 7.59375 -4.175781 7.78125 -3.625 7.78125 -2.96875 C 7.78125 -1.957031 7.429688 -1.175781 6.734375 -0.625 C 6.046875 -0.0703125 5.066406 0.203125 3.796875 0.203125 C 3.367188 0.203125 2.925781 0.15625 2.46875 0.0625 C 2.019531 -0.0195312 1.550781 -0.144531 1.0625 -0.3125 L 1.0625 -1.640625 C 1.445312 -1.421875 1.867188 -1.253906 2.328125 -1.140625 C 2.785156 -1.023438 3.257812 -0.96875 3.75 -0.96875 C 4.613281 -0.96875 5.269531 -1.132812 5.71875 -1.46875 C 6.175781 -1.8125 6.40625 -2.3125 6.40625 -2.96875 C 6.40625 -3.570312 6.191406 -4.039062 5.765625 -4.375 C 5.347656 -4.71875 4.765625 -4.890625 4.015625 -4.890625 L 2.828125 -4.890625 L 2.828125 -6.015625 L 4.078125 -6.015625 C 4.753906 -6.015625 5.269531 -6.148438 5.625 -6.421875 C 5.988281 -6.703125 6.171875 -7.097656 6.171875 -7.609375 C 6.171875 -8.128906 5.984375 -8.53125 5.609375 -8.8125 C 5.242188 -9.09375 4.710938 -9.234375 4.015625 -9.234375 C 3.640625 -9.234375 3.234375 -9.191406 2.796875 -9.109375 C 2.367188 -9.023438 1.894531 -8.894531 1.375 -8.71875 L 1.375 -9.953125 C 1.894531 -10.097656 2.382812 -10.207031 2.84375 -10.28125 C 3.300781 -10.351562 3.734375 -10.390625 4.140625 -10.390625 C 5.191406 -10.390625 6.019531 -10.148438 6.625 -9.671875 C 7.238281 -9.203125 7.546875 -8.5625 7.546875 -7.75 C 7.546875 -7.175781 7.382812 -6.695312 7.0625 -6.3125 C 6.738281 -5.925781 6.28125 -5.65625 5.6875 -5.5 Z M 5.6875 -5.5 "/>
</symbol>
<symbol overflow="visible" id="glyph1-8">
<path style="stroke:none;" d="M 6.359375 -6.5 L 6.359375 -10.640625 L 7.609375 -10.640625 L 7.609375 0 L 6.359375 0 L 6.359375 -1.15625 C 6.097656 -0.695312 5.765625 -0.351562 5.359375 -0.125 C 4.953125 0.09375 4.46875 0.203125 3.90625 0.203125 C 2.976562 0.203125 2.222656 -0.164062 1.640625 -0.90625 C 1.054688 -1.644531 0.765625 -2.617188 0.765625 -3.828125 C 0.765625 -5.023438 1.054688 -5.992188 1.640625 -6.734375 C 2.222656 -7.472656 2.976562 -7.84375 3.90625 -7.84375 C 4.46875 -7.84375 4.953125 -7.726562 5.359375 -7.5 C 5.765625 -7.28125 6.097656 -6.945312 6.359375 -6.5 Z M 2.078125 -3.828125 C 2.078125 -2.898438 2.265625 -2.171875 2.640625 -1.640625 C 3.023438 -1.117188 3.550781 -0.859375 4.21875 -0.859375 C 4.875 -0.859375 5.394531 -1.117188 5.78125 -1.640625 C 6.164062 -2.171875 6.359375 -2.898438 6.359375 -3.828125 C 6.359375 -4.742188 6.164062 -5.460938 5.78125 -5.984375 C 5.394531 -6.515625 4.875 -6.78125 4.21875 -6.78125 C 3.550781 -6.78125 3.023438 -6.515625 2.640625 -5.984375 C 2.265625 -5.460938 2.078125 -4.742188 2.078125 -3.828125 Z M 2.078125 -3.828125 "/>
</symbol>
<symbol overflow="visible" id="glyph1-9">
<path style="stroke:none;" d="M 4.625 -5.65625 C 4 -5.65625 3.503906 -5.441406 3.140625 -5.015625 C 2.785156 -4.585938 2.609375 -4.007812 2.609375 -3.28125 C 2.609375 -2.539062 2.785156 -1.957031 3.140625 -1.53125 C 3.503906 -1.101562 4 -0.890625 4.625 -0.890625 C 5.238281 -0.890625 5.726562 -1.101562 6.09375 -1.53125 C 6.457031 -1.957031 6.640625 -2.539062 6.640625 -3.28125 C 6.640625 -4.007812 6.457031 -4.585938 6.09375 -5.015625 C 5.726562 -5.441406 5.238281 -5.65625 4.625 -5.65625 Z M 7.359375 -9.984375 L 7.359375 -8.71875 C 7.015625 -8.882812 6.664062 -9.007812 6.3125 -9.09375 C 5.957031 -9.1875 5.609375 -9.234375 5.265625 -9.234375 C 4.347656 -9.234375 3.648438 -8.925781 3.171875 -8.3125 C 2.691406 -7.695312 2.421875 -6.765625 2.359375 -5.515625 C 2.617188 -5.910156 2.953125 -6.210938 3.359375 -6.421875 C 3.765625 -6.640625 4.210938 -6.75 4.703125 -6.75 C 5.722656 -6.75 6.53125 -6.4375 7.125 -5.8125 C 7.726562 -5.1875 8.03125 -4.34375 8.03125 -3.28125 C 8.03125 -2.226562 7.71875 -1.382812 7.09375 -0.75 C 6.476562 -0.113281 5.65625 0.203125 4.625 0.203125 C 3.4375 0.203125 2.53125 -0.25 1.90625 -1.15625 C 1.289062 -2.0625 0.984375 -3.375 0.984375 -5.09375 C 0.984375 -6.707031 1.363281 -7.992188 2.125 -8.953125 C 2.894531 -9.910156 3.921875 -10.390625 5.203125 -10.390625 C 5.554688 -10.390625 5.90625 -10.351562 6.25 -10.28125 C 6.601562 -10.21875 6.972656 -10.117188 7.359375 -9.984375 Z M 7.359375 -9.984375 "/>
</symbol>
<symbol overflow="visible" id="glyph1-10">
<path style="stroke:none;" d="M 1.15625 -10.203125 L 7.71875 -10.203125 L 7.71875 -9.625 L 4 0 L 2.5625 0 L 6.046875 -9.046875 L 1.15625 -9.046875 Z M 1.15625 -10.203125 "/>
</symbol>
<symbol overflow="visible" id="glyph1-11">
<path style="stroke:none;" d="M 5.203125 -10.640625 L 5.203125 -9.59375 L 4 -9.59375 C 3.539062 -9.59375 3.222656 -9.5 3.046875 -9.3125 C 2.878906 -9.132812 2.796875 -8.804688 2.796875 -8.328125 L 2.796875 -7.65625 L 4.859375 -7.65625 L 4.859375 -6.671875 L 2.796875 -6.671875 L 2.796875 0 L 1.53125 0 L 1.53125 -6.671875 L 0.328125 -6.671875 L 0.328125 -7.65625 L 1.53125 -7.65625 L 1.53125 -8.1875 C 1.53125 -9.039062 1.726562 -9.660156 2.125 -10.046875 C 2.519531 -10.441406 3.144531 -10.640625 4 -10.640625 Z M 5.203125 -10.640625 "/>
</symbol>
<symbol overflow="visible" id="glyph1-12">
<path style="stroke:none;" d="M 6.828125 -7.359375 L 6.828125 -6.1875 C 6.472656 -6.382812 6.113281 -6.53125 5.75 -6.625 C 5.394531 -6.726562 5.035156 -6.78125 4.671875 -6.78125 C 3.859375 -6.78125 3.222656 -6.519531 2.765625 -6 C 2.316406 -5.476562 2.09375 -4.753906 2.09375 -3.828125 C 2.09375 -2.890625 2.316406 -2.160156 2.765625 -1.640625 C 3.222656 -1.128906 3.859375 -0.875 4.671875 -0.875 C 5.035156 -0.875 5.394531 -0.921875 5.75 -1.015625 C 6.113281 -1.109375 6.472656 -1.253906 6.828125 -1.453125 L 6.828125 -0.296875 C 6.472656 -0.128906 6.109375 -0.00390625 5.734375 0.078125 C 5.359375 0.160156 4.960938 0.203125 4.546875 0.203125 C 3.390625 0.203125 2.46875 -0.15625 1.78125 -0.875 C 1.101562 -1.601562 0.765625 -2.585938 0.765625 -3.828125 C 0.765625 -5.066406 1.109375 -6.046875 1.796875 -6.765625 C 2.484375 -7.484375 3.425781 -7.84375 4.625 -7.84375 C 5.007812 -7.84375 5.382812 -7.800781 5.75 -7.71875 C 6.125 -7.644531 6.484375 -7.523438 6.828125 -7.359375 Z M 6.828125 -7.359375 "/>
</symbol>
</g>
</defs>
<g id="surface31">
<rect x="0" y="0" width="2048" height="2048" style="fill:rgb(100%,100%,100%);fill-opacity:1;stroke:none;"/>
<path style="fill:none;stroke-width:1.2;stroke-linecap:butt;stroke-linejoin:miter;stroke:rgb(26.666667%,26.666667%,26.666667%);stroke-opacity:1;stroke-miterlimit:10;" d="M 763.109375 50 L 50 1285.375 "/>
<path style="fill:none;stroke-width:1;stroke-linecap:butt;stroke-linejoin:miter;stroke:rgb(26.666667%,26.666667%,26.666667%);stroke-opacity:1;stroke-miterlimit:10;" d="M 763.109375 50 L 1998 762.753906 "/>
<path style="fill:none;stroke-width:1.2;stroke-linecap:butt;stroke-linejoin:miter;stroke:rgb(26.666667%,26.666667%,26.666667%);stroke-opacity:1;stroke-miterlimit:10;" d="M 50 1285.375 L 1284.882812 1998 "/>
<path style="fill:none;stroke-width:1;stroke-linecap:butt;stroke-linejoin:miter;stroke:rgb(26.666667%,26.666667%,26.666667%);stroke-opacity:1;stroke-miterlimit:10;" d="M 1998 762.753906 L 1284.882812 1998 "/>
<path style="fill-rule:nonzero;fill:rgb(100%,64.705882%,0%);fill-opacity:1;stroke-width:1;stroke-linecap:butt;stroke-linejoin:miter;stroke:rgb(0%,0%,0%);stroke-opacity:1;stroke-miterlimit:10;" d="M 773.109375 50 C 773.109375 55.523438 768.632812 60 763.109375 60 C 757.585938 60 753.109375 55.523438 753.109375 50 C 753.109375 44.476562 757.585938 40 763.109375 40 C 768.632812 40 773.109375 44.476562 773.109375 50 "/>
<path style="fill-rule:nonzero;fill:rgb(50%,50%,0%);fill-opacity:1;stroke-width:1;stroke-linecap:butt;stroke-linejoin:miter;stroke:rgb(0%,0%,0%);stroke-opacity:1;stroke-miterlimit:10;" d="M 55 1285.375 C 55 1292.039062 45 1292.039062 45 1285.375 C 45 1278.707031 55 1278.707031 55 1285.375 "/>
<path style="fill-rule:nonzero;fill:rgb(74.509804%,74.509804%,74.509804%);fill-opacity:1;stroke-width:1;stroke-linecap:butt;stroke-linejoin:miter;stroke:rgb(0%,0%,0%);stroke-opacity:1;stroke-miterlimit:10;" d="M 2003 762.753906 C 2003 769.421875 1993 769.421875 1993 762.753906 C 1993 756.085938 2003 756.085938 2003 762.753906 "/>
<path style="fill-rule:nonzero;fill:rgb(100%,64.705882%,0%);fill-opacity:1;stroke-width:1;stroke-linecap:butt;stroke-linejoin:miter;stroke:rgb(0%,0%,0%);stroke-opacity:1;stroke-miterlimit:10;" d="M 1294.882812 1998 C 1294.882812 2003.523438 1290.40625 2008 1284.882812 2008 C 1279.359375 2008 1274.882812 2003.523438 1274.882812 1998 C 1274.882812 1992.476562 1279.359375 1988 1284.882812 1988 C 1290.40625 1988 1294.882812 1992.476562 1294.882812 1998 "/>
<g style="fill:rgb(100%,54.901961%,0%);fill-opacity:1;">
  <use xlink:href="#glyph0-1" x="781.296875" y="56.882812"/>
  <use xlink:href="#glyph0-2" x="789.519531" y="56.882812"/>
  <use xlink:href="#glyph0-3" x="801.775391" y="56.882812"/>
</g>
<g style="fill:rgb(66.27451%,66.27451%,66.27451%);fill-opacity:1;">
  <use xlink:href="#glyph1-1" x="58.46875" y="1290.46875"/>
  <use xlink:href="#glyph1-2" x="67.375977" y="1290.46875"/>
  <use xlink:href="#glyph1-3" x="76.283203" y="1290.46875"/>
  <use xlink:href="#glyph1-4" x="85.19043" y="1290.46875"/>
  <use xlink:href="#glyph1-5" x="89.640625" y="1290.46875"/>
  <use xlink:href="#glyph1-2" x="98.547852" y="1290.46875"/>
  <use xlink:href="#glyph1-6" x="107.455078" y="1290.46875"/>
  <use xlink:href="#glyph1-4" x="116.362305" y="1290.46875"/>
  <use xlink:href="#glyph1-1" x="120.8125" y="1290.46875"/>
  <use xlink:href="#glyph1-7" x="129.719727" y="1290.46875"/>
  <use xlink:href="#glyph1-7" x="138.626953" y="1290.46875"/>
  <use xlink:href="#glyph1-4" x="147.53418" y="1290.46875"/>
  <use xlink:href="#glyph1-3" x="151.984375" y="1290.46875"/>
</g>
<g style="fill:rgb(66.27451%,66.27451%,66.27451%);fill-opacity:1;">
  <use xlink:href="#glyph1-5" x="2006.96875" y="767.972656"/>
  <use xlink:href="#glyph1-8" x="2015.875977" y="767.972656"/>
  <use xlink:href="#glyph1-9" x="2024.762695" y="767.972656"/>
  <use xlink:href="#glyph1-10" x="2033.669922" y="767.972656"/>
  <use xlink:href="#glyph1-10" x="2042.577148" y="767.972656"/>
  <use xlink:href="#glyph1-10" x="2051.484375" y="767.972656"/>
  <use xlink:href="#glyph1-8" x="2060.391602" y="767.972656"/>
  <use xlink:href="#glyph1-3" x="2069.27832" y="767.972656"/>
  <use xlink:href="#glyph1-5" x="2078.185547" y="767.972656"/>
  <use xlink:href="#glyph1-11" x="2087.092773" y="767.972656"/>
  <use xlink:href="#glyph1-12" x="2092.021484" y="767.972656"/>
  <use xlink:href="#glyph1-9" x="2099.71875" y="767.972656"/>
  <use xlink:href="#glyph1-11" x="2108.625977" y="767.972656"/>
  <use xlink:href="#glyph1-10" x="2113.554688" y="767.972656"/>
  <use xlink:href="#glyph1-5" x="2122.461914" y="767.972656"/>
  <use xlink:href="#glyph1-6" x="2131.369141" y="767.972656"/>
  <use xlink:href="#glyph1-7" x="2140.276367" y="767.972656"/>
  <use xlink:href="#glyph1-6" x="2149.183594" y="767.972656"/>
  <use xlink:href="#glyph1-11" x="2158.09082" y="767.972656"/>
  <use xlink:href="#glyph1-1" x="2163.019531" y="767.972656"/>
  <use xlink:href="#glyph1-9" x="2171.926758" y="767.972656"/>
  <use xlink:href="#glyph1-2" x="2180.833984" y="767.972656"/>
</g>
<g style="fill:rgb(100%,54.901961%,0%);fill-opacity:1;">
  <use xlink:href="#glyph0-2" x="1303.679688" y="2005.460938"/>
  <use xlink:href="#glyph0-4" x="1315.935547" y="2005.460938"/>
  <use xlink:href="#glyph0-5" x="1327.771484" y="2005.460938"/>
  <use xlink:href="#glyph0-6" x="1340.076172" y="2005.460938"/>
  <use xlink:href="#glyph0-2" x="1359.558594" y="2005.460938"/>
  <use xlink:href="#glyph0-1" x="1371.814453" y="2005.460938"/>
  <use xlink:href="#glyph0-7" x="1380.037109" y="2005.460938"/>
  <use xlink:href="#glyph0-2" x="1385.59375" y="2005.460938"/>
</g>
</g>
</svg>
